<?xml version="1.0" encoding="utf-8"?>
<!-- Generator: Adobe Illustrator 27.5.0, SVG Export Plug-In . SVG Version: 6.00 Build 0)  -->
<svg version="1.1" xmlns="http://www.w3.org/2000/svg" xmlns:xlink="http://www.w3.org/1999/xlink" x="0px" y="0px"
	 viewBox="0 0 500 500" style="enable-background:new 0 0 500 500;" xml:space="preserve">
<g id="BACKGROUND" display="none">
	<g>
		<g>
			<g>
				<g>
					<g>
						<rect y="-0.005" style="fill:#FFFFFF;" width="500" height="500"/>
					</g>
				</g>
			</g>
		</g>
	</g>
</g>
<g id="OBJECT">
	<g>
		<polygon style="fill:#B3BDC3;" points="12.58,351.527 21.283,397.764 481.033,397.764 487.305,351.933 		"/>
		
			<line style="fill:none;stroke:#FFFFFF;stroke-linecap:round;stroke-linejoin:round;stroke-miterlimit:10;" x1="13.63" y1="357.104" x2="486.597" y2="357.104"/>
		<polygon style="fill:#1E2D51;" points="20.782,331.829 476.576,331.829 487.363,351.933 12.637,351.527 		"/>
	</g>
	<g>
		<polygon style="fill:#E4E3E8;" points="16.14,284.15 480.184,292.151 464.756,82.659 60.052,61.297 		"/>
		<g>
			<g>
				
					<line style="fill:none;stroke:#FFFFFF;stroke-linecap:round;stroke-linejoin:round;stroke-miterlimit:10;" x1="89.607" y1="55.363" x2="89.607" y2="298.255"/>
				
					<line style="fill:none;stroke:#FFFFFF;stroke-linecap:round;stroke-linejoin:round;stroke-miterlimit:10;" x1="196.536" y1="55.363" x2="196.536" y2="298.255"/>
				
					<line style="fill:none;stroke:#FFFFFF;stroke-linecap:round;stroke-linejoin:round;stroke-miterlimit:10;" x1="303.464" y1="55.363" x2="303.464" y2="298.255"/>
				
					<line style="fill:none;stroke:#FFFFFF;stroke-linecap:round;stroke-linejoin:round;stroke-miterlimit:10;" x1="410.393" y1="55.363" x2="410.393" y2="298.255"/>
			</g>
			<g>
				
					<line style="fill:none;stroke:#FFFFFF;stroke-linecap:round;stroke-linejoin:round;stroke-miterlimit:10;" x1="16.14" y1="88.593" x2="480.184" y2="88.593"/>
				
					<line style="fill:none;stroke:#FFFFFF;stroke-linecap:round;stroke-linejoin:round;stroke-miterlimit:10;" x1="16.14" y1="163.465" x2="480.184" y2="163.465"/>
				
					<line style="fill:none;stroke:#FFFFFF;stroke-linecap:round;stroke-linejoin:round;stroke-miterlimit:10;" x1="16.14" y1="238.337" x2="480.184" y2="238.337"/>
			</g>
		</g>
	</g>
	<g>
		<path style="fill:#B3BDC3;" d="M434.075,227.861c0,0-6.124,14.534-9.049,21.583c0,0-3.339,0.68-8.684,1.557
			c-1.718,0.281-3.654,0.582-5.745,0.884c-7.099,1.024-16.077,2.09-25.21,2.539c-2.89,0.14-5.801,0.224-8.663,0.224
			c-5.696,0-11.553-0.323-17.129-0.807c-16.842-1.459-31.179-4.398-31.179-4.398c-2.925-7.049-9.049-21.583-9.049-21.583H434.075z"
			/>
		<path style="fill:#FFFFFF;" d="M418.889,227.861l-2.546,23.141c-1.718,0.281-3.654,0.582-5.745,0.884l2.645-24.024H418.889z"/>
		<path style="fill:#FFFFFF;" d="M385.388,254.425c-2.89,0.14-5.801,0.224-8.663,0.224c-5.696,0-11.553-0.323-17.129-0.807
			l-3.612-25.981h25.708L385.388,254.425z"/>
		<path style="fill:#FFFFFF;" d="M323.268,227.858h-3.901c0,0,6.125,14.535,9.051,21.584c0,0,1.557,0.319,4.243,0.799
			C329.348,242.299,323.268,227.858,323.268,227.858z"/>
		<path style="fill:#1E2D51;" d="M434.078,227.858c0,1.127-25.679,2.04-57.356,2.04c-31.677,0-57.356-0.913-57.356-2.04
			s25.679-2.04,57.356-2.04C408.399,225.818,434.078,226.732,434.078,227.858z"/>
		<path style="fill:none;stroke:#FFFFFF;stroke-linecap:round;stroke-linejoin:round;stroke-miterlimit:10;" d="M430.775,228.542
			c-7.904,0.79-29.121,1.356-54.053,1.356c-27.049,0-49.724-0.666-55.773-1.562c-1.035-0.153-1.583-0.313-1.583-0.478"/>
		<path style="fill:#B3BDC3;" d="M425.027,249.442l10.532-25.116c0.822-1.96,2.74-3.235,4.865-3.236l42.488-0.002
			c1.279,0,2.316-1.037,2.316-2.316l0,0c0-1.279-1.037-2.316-2.316-2.316h-43.844c-3.077,0-5.91,1.677-7.39,4.374l-4.241,7.729
			L425.027,249.442z"/>
	</g>
	<g>
		<path style="fill:#E9C9CD;" d="M147.803,216.523c-0.233-1.507-1.531-2.62-3.056-2.62h-8.503h-8.503
			c-1.525,0-2.823,1.112-3.056,2.62l-4.622,29.888c-0.305,1.973,1.03,3.825,2.997,4.161v0c8.726,1.487,17.641,1.487,26.367,0v0
			c1.968-0.335,3.303-2.188,2.997-4.161L147.803,216.523z"/>
		<path style="fill:#FFFFFF;" d="M123.225,247.811l4.747-31.175c0.239-1.572,1.572-2.732,3.139-2.732h-3.369
			c-1.525,0-2.823,1.112-3.056,2.62l-4.622,29.888c-0.305,1.973,1.03,3.825,2.997,4.161c0.299,0.051,0.601,0.087,0.901,0.134
			C123.361,249.909,123.062,248.88,123.225,247.811z"/>
		<path style="fill:#FFFFFF;" d="M125.086,228.962l-2.784,18.001h0c9.272,0.927,18.613,0.927,27.885,0h0l-2.784-18.001H125.086z"/>
		<g>
			<rect x="128.437" y="210.929" style="fill:#1E2D51;" width="16.173" height="2.974"/>
			<path style="fill:#1E2D51;" d="M146.302,210.929c0-3.718-5.925-5.577-9.779-5.577c-3.854,0-9.779,1.859-9.779,5.577H146.302z"/>
			<path style="fill:#FFFFFF;" d="M137.37,205.383c-0.29-0.019-0.574-0.03-0.846-0.03c-3.854,0-9.779,1.859-9.779,5.577h1.693
				C128.437,207.474,133.553,205.627,137.37,205.383z"/>
		</g>
	</g>
	<g>
		<rect x="14.771" y="250.54" style="fill:#FE826B;" width="470.457" height="9.165"/>
		<polygon style="fill:#1E2D51;" points="14.771,259.704 20.996,266.264 478.278,266.264 485.229,259.704 		"/>
	</g>
	<g>
		<g>
			<path style="fill:#858D91;" d="M437.492,151.637c-12.898-4.59-55.725-12.591-68.379-20.758
				c-12.653-8.166-23.36-52.94-23.36-52.94h-95.387H154.98c0,0-10.707,44.773-23.36,52.94c-12.653,8.166-55.48,16.167-68.379,20.758
				c-12.898,4.59-18.748,36.249-18.748,36.249h205.874h205.874C456.241,187.886,450.391,156.228,437.492,151.637z"/>
		</g>
		<g>
			<path style="fill:none;stroke:#1E2D51;stroke-linecap:round;stroke-linejoin:round;stroke-miterlimit:10;" d="M234.543,187.886
				h205.874c0,0-5.85-31.659-18.748-36.249c-12.898-4.59-55.725-12.591-68.379-20.758c-12.653-8.166-23.36-52.94-23.36-52.94"/>
		</g>
		
			<line style="fill:none;stroke:#1E2D51;stroke-linecap:round;stroke-linejoin:round;stroke-miterlimit:10;" x1="348.627" y1="88.586" x2="162.344" y2="88.586"/>
		<path style="fill:#FFFFFF;" d="M82.792,151.637c12.899-4.59,55.725-12.591,68.379-20.758c12.653-8.166,23.36-52.94,23.36-52.94
			h-19.55c0,0-10.707,44.773-23.36,52.94c-12.653,8.166-55.48,16.167-68.379,20.758c-12.898,4.59-18.748,36.249-18.748,36.249h19.55
			C64.043,187.886,69.893,156.228,82.792,151.637z"/>
		<polygon style="fill:#1E2D51;" points="44.493,187.886 456.241,187.886 461.241,201.758 38.759,201.758 		"/>
		<g>
			<g>
				<path style="fill:#1E2D51;" d="M318.791,169.644c0,3.387-2.745,6.132-6.132,6.132c-3.387,0-6.132-2.745-6.132-6.132
					c0-3.386,2.745-6.132,6.132-6.132C316.046,163.513,318.791,166.258,318.791,169.644z"/>
				<path style="fill:#B3BDC3;" d="M317.604,169.644c0,3.387-2.745,6.132-6.132,6.132c-3.387,0-6.132-2.745-6.132-6.132
					c0-3.386,2.745-6.132,6.132-6.132C314.859,163.513,317.604,166.258,317.604,169.644z"/>
				
					<line style="fill:none;stroke:#1E2D51;stroke-width:0.5;stroke-linecap:round;stroke-linejoin:round;stroke-miterlimit:10;" x1="311.473" y1="163.513" x2="311.473" y2="167.666"/>
				<path style="fill:#FFFFFF;" d="M312.198,174.326c-2.986,0-5.407-2.421-5.407-5.407c0-1.308,0.483-2.491,1.256-3.426
					c-1.2,0.992-1.981,2.473-1.981,4.151c0,2.986,2.421,5.407,5.407,5.407c1.678,0,3.159-0.781,4.151-1.981
					C314.689,173.843,313.505,174.326,312.198,174.326z"/>
			</g>
			<g>
				<path style="fill:#1E2D51;" d="M257.092,169.644c0,3.387-2.745,6.132-6.132,6.132s-6.132-2.745-6.132-6.132
					c0-3.386,2.745-6.132,6.132-6.132S257.092,166.258,257.092,169.644z"/>
				<path style="fill:#B3BDC3;" d="M255.905,169.644c0,3.387-2.745,6.132-6.132,6.132s-6.132-2.745-6.132-6.132
					c0-3.386,2.745-6.132,6.132-6.132S255.905,166.258,255.905,169.644z"/>
				
					<line style="fill:none;stroke:#1E2D51;stroke-width:0.5;stroke-linecap:round;stroke-linejoin:round;stroke-miterlimit:10;" x1="249.773" y1="163.513" x2="249.773" y2="167.666"/>
				<path style="fill:#FFFFFF;" d="M250.499,174.326c-2.986,0-5.407-2.421-5.407-5.407c0-1.308,0.483-2.491,1.256-3.426
					c-1.2,0.992-1.981,2.473-1.981,4.151c0,2.986,2.421,5.407,5.407,5.407c1.678,0,3.159-0.781,4.151-1.981
					C252.99,173.843,251.806,174.326,250.499,174.326z"/>
			</g>
			<g>
				<path style="fill:#1E2D51;" d="M195.393,169.644c0,3.387-2.745,6.132-6.132,6.132c-3.386,0-6.132-2.745-6.132-6.132
					c0-3.386,2.745-6.132,6.132-6.132C192.648,163.513,195.393,166.258,195.393,169.644z"/>
				<path style="fill:#B3BDC3;" d="M194.206,169.644c0,3.387-2.745,6.132-6.132,6.132c-3.386,0-6.132-2.745-6.132-6.132
					c0-3.386,2.745-6.132,6.132-6.132C191.461,163.513,194.206,166.258,194.206,169.644z"/>
				
					<line style="fill:none;stroke:#1E2D51;stroke-width:0.5;stroke-linecap:round;stroke-linejoin:round;stroke-miterlimit:10;" x1="188.074" y1="163.513" x2="188.074" y2="167.666"/>
				<path style="fill:#FFFFFF;" d="M188.8,174.326c-2.986,0-5.407-2.421-5.407-5.407c0-1.308,0.483-2.491,1.256-3.426
					c-1.2,0.992-1.981,2.473-1.981,4.151c0,2.986,2.421,5.407,5.407,5.407c1.678,0,3.159-0.781,4.151-1.981
					C191.29,173.843,190.107,174.326,188.8,174.326z"/>
			</g>
		</g>
		<polyline style="fill:none;stroke:#FFFFFF;stroke-linecap:round;stroke-linejoin:round;stroke-miterlimit:10;" points="
			137.711,188.086 137.711,156.384 362.289,156.384 362.289,187.285 		"/>
	</g>
	<g>
		<polygon style="fill:#FFFFFF;" points="82.312,6.703 76.559,99.548 413.721,106.401 423.441,6.703 		"/>
	</g>
	<g>
		<polygon style="fill:#FFE6CD;" points="21.283,397.764 481.033,397.764 460.461,472.769 18.967,486.22 		"/>
		<g>
			
				<line style="fill:none;stroke:#FFFFFF;stroke-linecap:round;stroke-linejoin:round;stroke-miterlimit:10;" x1="18.95" y1="408.95" x2="481.05" y2="408.95"/>
			<g>
				<path style="fill:none;stroke:#1E2D51;stroke-width:0.5;stroke-linecap:round;stroke-linejoin:round;stroke-miterlimit:10;" d="
					M349.892,480.978c0,0-104.694-34.061-137.613-38.986s11.821,8.308,18.528,19.493c6.707,11.186-164.379-46.859-214.667-18.555"/>
				<path style="fill:none;stroke:#1E2D51;stroke-width:0.5;stroke-linecap:round;stroke-linejoin:round;stroke-miterlimit:10;" d="
					M479.706,429.161c0,0-28.175-8.167-50.64,5.061c-22.465,13.228-58.249,9.88-94.159-5.061
					c-35.91-14.941-97.034-19.722-82.296-4.277c14.738,15.445,140.421,25.459,157.492,32.716c17.07,7.257-20.908,28.62-20.908,28.62
					"/>
				<path style="fill:none;stroke:#1E2D51;stroke-width:0.5;stroke-linecap:round;stroke-linejoin:round;stroke-miterlimit:10;" d="
					M18.95,471.187c0,0,55.344-24.951,83.037-20.388c27.692,4.563-23.829,21.645,7.075,35.421"/>
				<path style="fill:none;stroke:#1E2D51;stroke-width:0.5;stroke-linecap:round;stroke-linejoin:round;stroke-miterlimit:10;" d="
					M264.38,486.22c0,0-97.777-29.547-113.866-28.62c-16.089,0.927-22.817,8.682-27.761,14.299
					c-4.944,5.617,54.931,12.738,64.95,14.32c10.019,1.583-3.032-10.286-3.032-10.286"/>
				<path style="fill:none;stroke:#1E2D51;stroke-width:0.5;stroke-linecap:round;stroke-linejoin:round;stroke-miterlimit:10;" d="
					M479.706,445.868c0,0-45.778-29.775-49.155,40.497"/>
			</g>
		</g>
	</g>
	<g>
		<path style="fill:none;stroke:#1E2D51;stroke-linecap:round;stroke-linejoin:round;stroke-miterlimit:10;" d="M-0.478,118.031
			c0,0,281.39,19.503,499.114,0"/>
		<g>
			<polygon style="fill:#1E2D51;" points="58.602,112.901 55.833,113.692 57.811,129.253 59.261,129.253 			"/>
			<g>
				<path style="fill:#FFFFFF;" d="M38.759,130.967c0,0-0.928,42.22,15.095,53.327c0,0,31.302-6.853,39.735-11.33
					c0,0-15.995-17.675-17.031-48.458L38.759,130.967z"/>
				<path style="fill:none;stroke:#1E2D51;stroke-linecap:round;stroke-linejoin:round;stroke-miterlimit:10;" d="M46.588,129.629
					l-7.828,1.338c0,0-0.928,42.22,15.095,53.327c0,0,9.674-2.118,19.715-4.768"/>
				<path style="fill:none;stroke:#1E2D51;stroke-width:0.5;stroke-linecap:round;stroke-linejoin:round;stroke-miterlimit:10;" d="
					M42.378,149.77c0,0,5.002-7.324,9.329-8.863s-2.224,4.718-0.098,6.317c2.126,1.6,10.896-7.499,10.921-9.078
					c0.024-1.579-3.623,1.94-2.349,4.914c1.274,2.974,5.267-3.899,7.191-4.967c1.923-1.068,1.124,3.17,2.961,2.99
					c1.836-0.18,2.664-6.293,5.295-5.676"/>
				<path style="fill:none;stroke:#1E2D51;stroke-width:0.5;stroke-linecap:round;stroke-linejoin:round;stroke-miterlimit:10;" d="
					M48.554,167.796c0,0,4.112-3.584,4.009-6.413c-0.103-2.829-3.748,5.231,1.981,4.693c5.729-0.538,6.925-8.359,10.908-9.835
					c3.057-1.133-5.541,10.544-2.54,7.939c2.527-2.193,7.081-7.568,9.574-6.425c1.953,0.895-0.155,5.764-1.459,4.745
					c-1.304-1.019,4.983-9.253,7.91-8.83"/>
			</g>
			<polygon style="fill:#FE826B;" points="59.261,129.253 58.602,112.901 62.294,112.901 61.165,129.253 			"/>
		</g>
		<g>
			<polygon style="fill:#1E2D51;" points="132.527,117.108 129.758,117.9 131.736,133.46 133.186,133.46 			"/>
			<g>
				<g>
					<g>
						<path style="fill:#FFFFFF;" d="M112.684,135.174c0,0-0.928,42.22,15.095,53.327c0,0,31.302-6.853,39.735-11.33
							c0,0-15.995-17.675-17.031-48.458L112.684,135.174z"/>
					</g>
				</g>
			</g>
			<path style="fill:none;stroke:#1E2D51;stroke-width:0.5;stroke-linecap:round;stroke-linejoin:round;stroke-miterlimit:10;" d="
				M118.206,152.527c0,0,7.714-9.89,7.516-12.066c-0.198-2.176-6.527,6.528,2.769,6.033c0,0-5.934,2.077-3.165,4.253
				c2.769,2.176,7.806-5.341,9.046-6.725c1.24-1.385-5.591,2.275-1.187,4.055c4.405,1.78,5.888-3.165,7.57-4.055
				c1.681-0.89,1.484,1.826,2.176,2.298c0.692,0.472,2.176-3.88,4.945-4.374c2.769-0.494,0,0.989,0,0.989"/>
			<path style="fill:none;stroke:#1E2D51;stroke-width:0.5;stroke-linecap:round;stroke-linejoin:round;stroke-miterlimit:10;" d="
				M122.307,175.652c6.482-0.971,13.912-10.96,12.544-11.472c-2.399-0.289-5.865,3.381-4.556,4.399
				c1.267,0.392,2.572-0.364,3.71-1.047c2.616-1.57,5.489-2.942,8.54-2.979c0.729-0.009,1.685,0.293,1.656,1.022
				c-2.857,1.106-5.542,2.658-7.926,4.582c-1.136,0.916-2.289,2.104-2.265,3.563c1.491,0.045,2.772-0.98,3.937-1.911
				c4.057-3.243,8.856-5.365,13.195-8.219c1.481-0.974-2.182-0.981-3.068,0.707c-0.886,1.688,1.187,5.025,3.857,2.216
				c2.67-2.809,5.242-4.491,5.143-1.721"/>
			<polygon style="fill:#FE826B;" points="133.186,133.46 132.527,117.108 136.219,117.108 135.09,133.46 			"/>
		</g>
		<g>
			<polygon style="fill:#1E2D51;" points="451.421,117.108 454.191,117.9 452.213,133.46 450.762,133.46 			"/>
			<g>
				<g>
					<g>
						<path style="fill:#FFFFFF;" d="M471.264,135.174c0,0,0.928,42.22-15.095,53.327c0,0-31.302-6.853-39.736-11.33
							c0,0,15.995-17.675,17.031-48.458L471.264,135.174z"/>
					</g>
				</g>
			</g>
			<g>
				<g>
					<g>
						<path style="fill:none;stroke:#1E2D51;stroke-linecap:round;stroke-linejoin:round;stroke-miterlimit:10;" d="
							M459.385,133.144l11.879,2.031c0,0,0.227,10.328-1.482,22.112"/>
					</g>
				</g>
			</g>
			<path style="fill:none;stroke:#1E2D51;stroke-width:0.5;stroke-linecap:round;stroke-linejoin:round;stroke-miterlimit:10;" d="
				M465.742,152.527c0,0-7.714-9.89-7.516-12.066c0.198-2.176,6.527,6.528-2.769,6.033c0,0,5.934,2.077,3.165,4.253
				c-2.769,2.176-7.806-5.341-9.046-6.725s5.591,2.275,1.187,4.055c-4.405,1.78-5.888-3.165-7.569-4.055
				c-1.681-0.89-1.484,1.826-2.176,2.298c-0.692,0.472-2.176-3.88-4.945-4.374c-2.769-0.494,0,0.989,0,0.989"/>
			<path style="fill:none;stroke:#1E2D51;stroke-width:0.5;stroke-linecap:round;stroke-linejoin:round;stroke-miterlimit:10;" d="
				M461.641,175.652c-6.482-0.971-13.912-10.96-12.544-11.472c2.399-0.289,5.865,3.381,4.556,4.399
				c-1.267,0.392-2.572-0.364-3.71-1.047c-2.616-1.57-5.489-2.942-8.54-2.979c-0.729-0.009-1.685,0.293-1.656,1.022
				c2.857,1.106,5.542,2.658,7.926,4.582c1.136,0.916,2.289,2.104,2.265,3.563c-1.491,0.045-2.772-0.98-3.937-1.911
				c-4.057-3.243-8.856-5.365-13.195-8.219c-1.481-0.974,2.182-0.981,3.068,0.707c0.886,1.688-1.187,5.025-3.857,2.216
				c-2.67-2.809-5.242-4.491-5.143-1.721"/>
			<polygon style="fill:#FE826B;" points="450.762,133.46 451.421,117.108 447.729,117.108 448.858,133.46 			"/>
		</g>
	</g>
	<g>
		<g>
			<g>
				<path style="fill:#FFFFFF;" d="M219.459,292.903c0,0-22.266,78.306-27.165,86.469c-4.898,8.164,4.103,18.315,4.103,18.315
					h120.951c10.613,1.633,39.581,29.947,39.581,29.947c5.442,0,102.455-7.301,102.455-34.513
					c0-40.274-33.743-96.346-33.743-105.054c0-8.708,4.765-16.041,0.283-25.895c-3.109-6.836-13.062-13.878-13.062-13.878
					s-6.803-18.776-19.865-25.307c-13.062-6.531-78.932-17.416-78.932-17.416h-54.673c0,0-70.016,5.18-75.031,11.019
					c-4.405,5.129-11.248,11.611-11.248,11.611s-75.317,47.04-89.736,53.336c-18.885,8.246-42.651,15.4-47.322,26.714
					c-2.915,7.058-17.226,73.783-5.011,77.508c12.216,3.726,73.435-15.887,83.261-18.693c9.826-2.805,20.983-29.473,20.983-29.473
					S196.601,323.38,219.459,292.903z"/>
				<path style="fill:none;stroke:#1E2D51;stroke-linecap:round;stroke-linejoin:round;stroke-miterlimit:10;" d="M425.924,262.171
					c0,0,2.575,4.053,1.906,9.604c-0.669,5.551-1.32,10.25-2.189,16.29c-0.869,6.04,14.224,31.118,21.142,51.296"/>
				<g>
					<g>
						<path style="fill:#1E2D51;" d="M269.026,282.442c0.674,3.305-0.389,6.312-2.374,6.717c-1.985,0.405-4.141-1.946-4.815-5.251
							c-0.674-3.305,0.389-6.312,2.374-6.717C266.196,276.786,268.351,279.137,269.026,282.442z"/>
						<path style="fill:#1E2D51;" d="M274.448,330.505c0.113,3.371-1.437,6.159-3.462,6.227c-2.025,0.068-3.758-2.61-3.871-5.981
							c-0.113-3.371,1.437-6.159,3.462-6.227C272.602,324.456,274.335,327.134,274.448,330.505z"/>
						<path style="fill:#1E2D51;" d="M331.591,274.586c0.674,3.305-0.389,6.312-2.374,6.717c-1.985,0.405-4.141-1.946-4.815-5.251
							c-0.674-3.305,0.389-6.312,2.374-6.717C328.761,268.931,330.917,271.282,331.591,274.586z"/>
						<path style="fill:#1E2D51;" d="M337.014,322.65c0.113,3.371-1.437,6.159-3.462,6.227c-2.025,0.068-3.758-2.61-3.871-5.981
							c-0.113-3.371,1.437-6.159,3.462-6.227C335.168,316.601,336.901,319.279,337.014,322.65z"/>
					</g>
					<g>
						<path style="fill:none;stroke:#1E2D51;stroke-linecap:round;stroke-linejoin:round;stroke-miterlimit:10;" d="
							M319.038,219.257c0,0-11.225,39.692-64.288,44.862c-3.521,0.343-3.266,16.871-1.633,40.818
							c1.633,23.947-16.871,74.017-18.504,78.915c-1.633,4.898,0,13.835,0,13.835"/>
						<path style="fill:none;stroke:#1E2D51;stroke-linecap:round;stroke-linejoin:round;stroke-miterlimit:10;" d="
							M269.452,231.341c0,0,1.965,13.729,19.483,22.437"/>
						<path style="fill:none;stroke:#1E2D51;stroke-linecap:round;stroke-linejoin:round;stroke-miterlimit:10;" d="
							M113.247,275.048c5.375-9.067,13.37-15.283,13.062-10.929c-0.379,5.347-2.177,16.871-25.035,17.416
							c-22.858,0.544-37.85,8.215-37.85,8.215c-8.087,3.547-21.724,10.42-25.649,15.534c-3.436,4.476-7.444,27.605-7.444,27.605"/>
						<path style="fill:none;stroke:#1E2D51;stroke-linecap:round;stroke-linejoin:round;stroke-miterlimit:10;" d="
							M161.863,241.687c9.431-12.635,22.498-25.099,22.498-25.099s6.478-7.089,18.296,6.071"/>
						<path style="fill:none;stroke:#1E2D51;stroke-linecap:round;stroke-linejoin:round;stroke-miterlimit:10;" d="
							M385.021,352.245c0,0,40.983,2.218,50.78,18.545c9.796,16.327-37.008-13.305-37.008-13.305"/>
						<path style="fill:none;stroke:#1E2D51;stroke-linecap:round;stroke-linejoin:round;stroke-miterlimit:10;" d="
							M392.998,222.985c0,0-9.263-1.861-18.515,3.309c-9.252,5.17-14.643,23.13-14.643,23.13"/>
						<path style="fill:none;stroke:#1E2D51;stroke-linecap:round;stroke-linejoin:round;stroke-miterlimit:10;" d="
							M361.665,357.214c0,0,48.368,51.618,32.226,66.34"/>
					</g>
					<g>
						<path style="fill:#E9C9CD;" d="M173.091,244.232c0,0,8.731,36.896,2.2,68.393
							C175.291,312.625,193.749,280.401,173.091,244.232z"/>
						<path style="fill:#E9C9CD;" d="M152.222,260.736c0,0,13.483,30.755,15.653,59.234
							C167.875,319.969,173.522,288.961,152.222,260.736z"/>
						<path style="fill:#E9C9CD;" d="M135.289,337.591c0,0,6.369-43.134-16.36-49.473
							C118.929,288.119,156.515,289.698,135.289,337.591z"/>
						<path style="fill:#E9C9CD;" d="M422.921,297.821c0,0-5.442,29.974-15.783,49.567
							C407.137,347.388,428.363,328.802,422.921,297.821z"/>
						<path style="fill:#E9C9CD;" d="M386.88,407.798c0,2.889-2.342,5.231-5.23,5.231s-5.23-2.342-5.23-5.231
							c0-2.889,2.342-5.23,5.23-5.23S386.88,404.91,386.88,407.798z"/>
						<path style="fill:#E9C9CD;" d="M412.501,349.514c0,0,14.072-5.213,22.206-16.822
							C434.707,332.692,431.89,354.178,412.501,349.514z"/>
						<path style="fill:#E9C9CD;" d="M248.945,397.686c0,0,49.232-43.257,64.527-72.629c0,0-6.564,30.951-41.351,72.629H248.945z"/>
					</g>
					<g>
						<path style="fill:#1E2D51;" d="M281.236,362.184l27.213-4.121c0,0,28.452-4.482,37.461-5.414
							c3.9-0.404,15.755,4.566,15.755,4.566l23.356-4.969c0,0-31.211-47.553-36.515-94.508c0,0-0.095,61.94,11.334,84.934
							c0,0-46.312,1.996-76.563,18.377"/>
						<path style="fill:#1E2D51;" d="M359.461,423.554c-0.447,1.788-1.28,3.178-2.531,4.079
							c-5.819,4.168-18.779-3.618-30.947-17.871c-2.07-2.428-4.114-5.042-6.101-7.814c-13.654-19.06-19.198-38.465-12.382-43.342
							c0.296-0.213,0.612-0.392,0.949-0.544c3.061-1.396,7.615-0.206,12.829,2.985h0.007c7.216,4.416,15.69,12.663,23.263,23.243
							C355.685,399.843,361.421,415.623,359.461,423.554z"/>
						<path style="fill:#1E2D51;" d="M128.76,323.34c0,0-8.543,19.831-16.749,31.029c-2.249,3.075-4.471,5.496-6.487,6.679
							c-3.9,2.291-15.835,5.833-28.464,8.708c0,0,0,0-0.007,0.007c-17.664,4.017-36.69,6.748-37,2.944
							c-0.537-6.521-4.347-40.721,0-49.368c3.77-7.477,10.703-13.338,18.311-17.822c15.484-9.142,33.753-12.615,33.753-12.615
							c6.555-0.144,12.285,2.098,17.134,5.427C122.032,307.078,128.76,323.34,128.76,323.34z"/>
					</g>
				</g>
			</g>
			<g>
				<path style="fill:#F27C5E;" d="M216.744,339.496c0,0-21.146-12.608-25.398-14.439c-4.252-1.831-9.585,3.282-8.466,7.636
					l32.565,17.688L216.744,339.496z"/>
				<path style="fill:#FCAB97;" d="M359.461,423.554c-3.873-1.513-7.945-3.143-12.127-4.849c-6.934-2.827-14.17-5.874-21.351-8.942
					c-30.527-13.056-59.988-26.634-59.988-26.634c-19.164-4.1-42.812-16.694-47.166-22.08c-4.354-5.386-39.731-24.213-39.731-24.213
					s-0.543-5.778,2.724-7.408c3.267-1.63,13.606,3.267,13.606,3.267s-0.544-4.898,5.441-6.535
					c5.991-1.63,26.125,11.976,32.66,10.676c6.528-1.3,32.467-0.516,32.467-0.516c3.267-2.387,8.894-11.79,16.509-19.721
					c7.622-7.924,22.314-1.864,17.946,0c-4.368,1.871-11.955,16.275-10.868,24.439c1.087,8.165-6.136,11.205-6.136,11.205
					l25.004,5.819l12.829,2.985c0,0,0,0,0.007,0c7.216,4.416,15.69,12.663,23.263,23.243
					C355.685,399.843,361.421,415.623,359.461,423.554z"/>
				<path style="fill:none;stroke:#1E2D51;stroke-linecap:round;stroke-linejoin:round;stroke-miterlimit:10;" d="M313.472,408.343
					c0,0,12.574,0.544,22.098-3.81"/>
				<path style="fill:none;stroke:#1E2D51;stroke-linecap:round;stroke-linejoin:round;stroke-miterlimit:10;" d="M297.853,399.67
					c0,0,12.317,2.587,22.423-0.157"/>
				<path style="fill:none;stroke:#1E2D51;stroke-linecap:round;stroke-linejoin:round;stroke-miterlimit:10;" d="M195.428,332.693
					c0,0,21.137,9.284,25.128,15.452c2.93,4.529,17.504,4.503,17.504,4.503"/>
				<path style="fill:#F27C5E;" d="M283.448,352.245c0,0-1.986,2.49-9.627,5.211c0,0,19.9,12.205,20.824-2.605L283.448,352.245z"/>
				<path style="fill:#F27C5E;" d="M359.461,423.554c-3.873-1.513-7.945-3.143-12.127-4.849
					c-5.014-32.632-26.056-57.656-26.056-57.656s0,0,0.007,0c7.216,4.416,15.69,12.663,23.263,23.243
					C355.685,399.843,361.421,415.623,359.461,423.554z"/>
			</g>
			<g>
				<path style="fill:#732D27;" d="M319.46,170.171c0,0,3.864,22.708-3.359,42.029h-55.919c0,0-5.668-15.204-7.364-29.717
					C252.818,182.483,299.21,168.901,319.46,170.171z"/>
				<g>
					<path style="fill:#F27C5E;" d="M269.452,231.341c0,0,8.004,12.932,17.681,10.877c9.677-2.055,23.021-7.956,32.328-22.961
						l-7.021-15.005l-39.73,0.816L269.452,231.341z"/>
					<g>
						<path style="fill:#1E2D51;" d="M289.369,241.687c0,0-0.434-4.327,0.355-9.851c0.535-3.746,15.307-5.115,26.378-19.636
							l3.359,7.057C319.46,219.257,310.535,236.337,289.369,241.687z"/>
						<path style="fill:#1E2D51;" d="M283.238,242.282c0,0-7.738-0.75-13.786-10.942l1.353-5.047c0,0,7.891,2.993,10.703,5.079
							C283.694,232.995,283.238,242.282,283.238,242.282z"/>
					</g>
				</g>
				<g>
					<g>
						<g>
							<g>
								<path style="fill:#FCAB97;" d="M315.917,192.026c7.908,14.156-13.786,18.611-13.786,18.611s-6.566,28.566-24.329,25.464
									c-6.021-1.052-10.757-6.511-14.28-13.196c-6.476-12.248-8.608-29.72-5.527-38.796c3.128-9.251,25.785-9.292,25.785-9.292
									c1.703,23.72,17.972,25.676,17.972,25.676S312.404,185.737,315.917,192.026z"/>
							</g>
						</g>
					</g>
					<g>
						<path style="fill:none;stroke:#1E2D51;stroke-linecap:round;stroke-linejoin:round;stroke-miterlimit:10;" d="
							M269.093,192.026c0,0,4.678,4.54,5.506,10.195c0.828,5.654-0.058,12.659,0.282,15.635c0.34,2.976,6.574,0.481,7.777-3.27"/>
						<g>
							<path style="fill:#1E2D51;" d="M283.251,195.561c0.35,1.815-0.194,3.446-1.216,3.643c-1.022,0.197-2.135-1.113-2.486-2.928
								c-0.351-1.814,0.194-3.446,1.216-3.643C281.788,192.436,282.901,193.747,283.251,195.561z"/>
							<path style="fill:none;stroke:#1E2D51;stroke-linecap:round;stroke-linejoin:round;stroke-miterlimit:10;" d="
								M278.152,193.435c0,0,2.88-2.324,6.697-0.382"/>
						</g>
						<g>
							<path style="fill:#1E2D51;" d="M264.491,200.584c0.351,1.814-0.194,3.446-1.216,3.643c-1.022,0.197-2.135-1.113-2.486-2.928
								s0.194-3.446,1.216-3.643C263.028,197.459,264.141,198.77,264.491,200.584z"/>
							<path style="fill:none;stroke:#1E2D51;stroke-linecap:round;stroke-linejoin:round;stroke-miterlimit:10;" d="
								M259.392,198.458c0,0,2.88-2.324,6.697-0.382"/>
						</g>
						<path style="fill:#FFFFFF;" d="M292.184,212.053c0,0,3.018,9.792-0.08,11.293c-3.651,1.769-7.736-3.31-7.736-3.31
							S289.616,217.541,292.184,212.053z"/>
						<path style="fill:none;stroke:#1E2D51;stroke-linecap:round;stroke-linejoin:round;stroke-miterlimit:10;" d="
							M305.183,205.599c0,0,3.628-13.841,9.434-9.68"/>
					</g>
				</g>
				<g>
					<path style="fill:#FFFFFF;" d="M252.818,182.483c0,0,48.265-3.942,66.642-12.312l-3.233-11.507c0,0,14.353,3.863,21.247-2.668
						c6.216-5.889,0.794-31.203-18.436-40.637c-19.23-9.433-27.28,6.198-27.28,6.198s-17.33-22.544-41.725-14.905
						c-28.391,8.889-15.306,37.755-15.306,37.755s-30.361-0.811-30.41,16.306c-0.066,23.221,17.671,35.557,50.111,31.352
						L252.818,182.483z"/>
					<path style="fill:none;stroke:#1E2D51;stroke-linecap:round;stroke-linejoin:round;stroke-miterlimit:10;" d="M234.727,144.407
						c0,0-12.244-21.313,8.308-34.174c20.552-12.861,42.593,1.494,53.645,16.133"/>
					<path style="fill:#E9C9CD;" d="M248.945,144.386c0,0,1.381-16.327,40.602-6.531c0,0-32.942-17.824-46.762-9.071
						c-9.249,5.858,1.364,20.821,1.364,20.821s-30.182-4.547-31.826,13.361c-1.644,17.908,18.452,27.586,41.687,25.365l-1.601-7.91
						C252.409,180.421,248.31,150.645,248.945,144.386z"/>
					<path style="fill:#E9C9CD;" d="M315.347,155.316c0,0,17.239,7.651,20.858-2.767c5.987-17.234-13.425-32.473-13.425-32.473
						c6.732,9.672,11.792,23.584,5.987,27.575c-5.805,3.991-15.295,0-15.295,0L315.347,155.316z"/>
					<path style="fill:none;stroke:#1E2D51;stroke-linecap:round;stroke-linejoin:round;stroke-miterlimit:10;" d="M311.714,137.855
						c0.726,8.708,7.746,32.316,7.746,32.316s-13.892,6.292-40.267,9.302"/>
					<path style="fill:none;stroke:#1E2D51;stroke-linecap:round;stroke-linejoin:round;stroke-miterlimit:10;" d="M252.818,182.483
						c0,0-3.51-16.327-3.873-34.832"/>
					<path style="fill:none;stroke:#1E2D51;stroke-linecap:round;stroke-linejoin:round;stroke-miterlimit:10;" d="M262.865,167.268
						c0,0,26.673-0.494,53.363-8.604"/>
				</g>
			</g>
		</g>
		<g>
			<g>
				<ellipse style="fill:#6AAFD3;" cx="239.481" cy="319.81" rx="60.856" ry="14.613"/>
				<ellipse style="fill:#BDEBF5;" cx="240.294" cy="317.016" rx="77.399" ry="11.819"/>
				<ellipse style="fill:#E4E3E8;" cx="240.294" cy="317.016" rx="37.004" ry="5.65"/>
			</g>
			<g>
				<path style="fill:#51221E;" d="M191.745,303.957c0,0,1.301,8.467,1.602,10.997c0.301,2.53,27.063,11.816,42.996,12.343
					c15.933,0.527,54.117-10.81,56.222-12.7c2.105-1.89,1.735-11.983,1.735-11.983L191.745,303.957z"/>
				<path style="fill:#732D27;" d="M191.745,303.957c0.999-3.223,90.198-5.782,101.022-2.091
					c10.824,3.691-38.787,15.027-50.512,15.921C230.531,318.68,189.941,309.777,191.745,303.957z"/>
				<path style="fill:#FE826B;" d="M203.645,305.214c-1.13,2.184,20.462,8.377,35.854,8.886c15.391,0.509,39.152-7.873,40.364-9.095
					C284.159,300.674,205.674,301.291,203.645,305.214z"/>
				<path style="fill:#732D27;" d="M215.096,313.293c0,0,24.854-1.976,23.388-11.825l4.51-0.552c0,0-1.715,4.386,1.385,6.227
					c2.777,1.649,29.283,1.438,29.283,1.438l-10.936,3.418c0,0-18.04-2.802-24.015-2.055c-5.976,0.747-12.177,5.162-12.177,5.162
					L215.096,313.293z"/>
				<path style="fill:#E9C9CD;" d="M240.513,305.909c-2.079-0.069-4.284,1.131-3.833,2.452c0.451,1.321,5.946,0.209,6.355-0.443
					C243.445,307.266,242.317,305.969,240.513,305.909z"/>
			</g>
			<g display="none">
				<path style="fill:#B82A3A;" d="M282.057,322.689c0,0-0.013,0.006-0.04,0.019c-16.984,8.217-25.998-4.071-25.998-4.071
					l0.461-0.586l4.125-5.254L282.057,322.689z"/>
				<path style="fill:#FFFFFF;" d="M282.016,322.708c-16.984,8.217-25.998-4.071-25.998-4.071l0.461-0.586
					C268.086,328.623,281.207,323.063,282.016,322.708z"/>
				<path style="fill:#F83B4D;" d="M283.927,321.982c-8.444,4.221-19.392-5.377-22.477-8.345c-0.544-0.521-0.845-0.84-0.845-0.84
					s20.718-6.931,30.731-10.09c0,0,0.054,0.318,0.119,0.876C291.811,306.762,292.384,317.754,283.927,321.982z"/>
				<path style="fill:#B82A3A;" d="M274.856,309.978c0,0-4.972,4.887-3.358,6.328C273.086,317.724,274.251,315.739,274.856,309.978z
					"/>
				<path style="fill:#B82A3A;" d="M284.424,306.818c0,0,5.96,3.002,4.767,4.928C288.018,313.64,286.415,312.132,284.424,306.818z"
					/>
				<path style="fill:#B82A3A;" d="M279.177,308.356c0,0-0.285,9.328,2.665,9.205C283.265,317.502,283.707,314.091,279.177,308.356z
					"/>
				<path style="fill:#FFFFFF;" d="M291.454,303.583l-30.004,10.054c-0.544-0.521-0.845-0.84-0.845-0.84s20.718-6.931,30.731-10.09
					C291.335,302.707,291.39,303.025,291.454,303.583z"/>
			</g>
			<g>
				<path style="fill:#2E6232;" d="M195.176,291.533c0,0,2.552,3.402,7.857,7.529c5.305,4.127,39.471,22.868,72.536-9.774
					c0,0-26.831,3.426-43.541,11.392c-12.762,6.084-25.139-0.217-36.889-10.462L195.176,291.533z"/>
				<path style="fill:#3C8041;" d="M203.033,299.061c0,0,17.869-6.94,37.07-3.966c16.098,2.494,29.227,0.152,35.466-5.809
					c0,0-10.908,20.159-35.808,21.339C214.86,311.806,203.033,299.061,203.033,299.061z"/>
			</g>
		</g>
		<g>
			<path style="fill:#F27C5E;" d="M229.433,274.876c0,0,3.818-9.63,10.862-13.909c5.278-3.206,12.003-4.538,13.573-1.596
				c1.57,2.943-10.25,17.231-13.1,23.679c-2.85,6.448-11.641,21.585-25.217,28.603C215.551,311.653,213.309,289.03,229.433,274.876z
				"/>
			<path style="fill:#FCAB97;" d="M248.984,261.357c-6.039,0.454-12.024-13.73-12.024-13.73s-8.323,28.422-9.314,35.397
				c-0.997,6.968-1.038,23.153-17.492,32.336c-11.604,6.486-25.217,9.217-25.217,9.217c-9.279,4.822-43.177,17.568-72.927,29.791
				c-13.358,5.489-25.877,10.875-34.95,15.387c0,0,0,0-0.007,0.007c-8.075,1.836-16.44,3.405-23.167,4.203
				c-7.986,0.943-13.668,0.805-13.833-1.259c-0.537-6.521-4.347-40.721,0-49.368c3.77-7.477,10.703-13.338,18.311-17.822
				c0.605-0.089,1.211-0.165,1.809-0.234c0.007-0.007,0.007-0.007,0.007-0.007c11.02-1.238,29.888-3.996,49.072-6.947
				c31.483-4.85,63.833-10.215,63.833-10.215s19.274-35.108,23.779-39.958c4.505-4.856,14.734-3.928,14.734-3.928
				s-1.238-3.701,1.637-5.42c2.882-1.733,11.501,0.378,11.501,0.378s2.683-6.397,7.381-6.899c2.483-0.262,16.068,5.173,18.311,8.158
				C252.671,243.424,255.016,260.902,248.984,261.357z"/>
			<path style="fill:#F27C5E;" d="M47.393,331.174c-0.695,9.293,1.706,26.799,6.493,42.792c-7.986,0.943-13.668,0.805-13.833-1.259
				c-0.537-6.521-4.347-40.721,0-49.368c3.77-7.477,10.703-13.338,18.311-17.822c0.605-0.089,1.211-0.165,1.809-0.234
				C60.173,305.283,48.479,316.599,47.393,331.174z"/>
			<path style="fill:#FCAB97;" d="M224.733,239.192c0,0,14.889,3.521,18.674,5.519c3.785,1.998-7.455,10.992-21.765,9.842
				L224.733,239.192z"/>
			<path style="fill:none;stroke:#1E2D51;stroke-linecap:round;stroke-linejoin:round;stroke-miterlimit:10;" d="M224.733,239.192
				c0,0,14.889,3.521,18.675,5.519c3.785,1.998-7.455,10.992-21.765,9.842"/>
			<path style="fill:none;stroke:#1E2D51;stroke-linecap:round;stroke-linejoin:round;stroke-miterlimit:10;" d="M211.597,244.232
				c0,0,8.398,7.421,10.045,10.322c1.647,2.901-3.064,11.1-4.008,17.383c-0.944,6.282-6.733,1.861-8.052-2.812
				c-1.319-4.673,0.574-11.03,0.574-11.03s-4.171-1.363-7.499-1.502"/>
			<path style="fill:none;stroke:#1E2D51;stroke-linecap:round;stroke-linejoin:round;stroke-miterlimit:10;" d="M124.925,292.97
				c0,0-11.86,4.211-19.056,11.819"/>
			<path style="fill:none;stroke:#1E2D51;stroke-linecap:round;stroke-linejoin:round;stroke-miterlimit:10;" d="M147.146,289.125
				c0,0-11.807,4.356-18.91,12.052"/>
			<path style="fill:#F27C5E;" d="M173.091,288.119l-6.396,9.702c0,0-7.997-0.033-3.415-8.09L173.091,288.119z"/>
		</g>
	</g>
	<g>
		<path style="fill:#1E2D51;" d="M75.7,215.729l-27.102,1.718c0,0,0.989,15.604,13.145,18.75c5.105,1.321,6.267,4.55,6.384,6.398
			l9.239-0.586l19.239-0.586c-0.117-1.848,0.627-5.198,5.525-7.153c11.661-4.656,10.672-20.261,10.672-20.261L75.7,215.729z"/>
		<path style="fill:#858D91;" d="M75.711,224.206H48.554c0,0,0,15.636,11.932,19.545c5.011,1.642,5.966,4.938,5.966,6.789h9.258
			h19.258c0-1.852,0.955-5.147,5.966-6.789c11.933-3.909,11.933-19.545,11.933-19.545H75.711z"/>
		
			<line style="fill:none;stroke:#1E2D51;stroke-linecap:round;stroke-linejoin:round;stroke-miterlimit:10;" x1="112.443" y1="228.303" x2="49.994" y2="228.303"/>
		<path style="fill:#FFFFFF;" d="M62.845,243.963c-12.234-3.787-12.234-18.934-12.234-18.934h27.843h34.381
			c0.031-0.52,0.032-0.823,0.032-0.823H75.711H48.554c0,0,0,15.636,11.932,19.545c5.011,1.642,5.966,4.938,5.966,6.789h2.509
			C68.962,248.746,67.983,245.553,62.845,243.963z"/>
	</g>
	<g>
		<ellipse style="fill:#1E2D51;" cx="226.194" cy="461.846" rx="95.084" ry="11.604"/>
		<g>
			<path style="fill:#B3BDC3;" d="M125.813,432.957l12.66,27.81c0,0,15.03,4.36,44.75,6.47c9.45,0.67,20.38,1.11,32.79,1.11
				c8.23,0,15.8-0.2,22.73-0.52c17.97-0.84,31.56-2.57,40.71-4.11c9.38-1.58,14.1-2.95,14.1-2.95l12.66-27.81H125.813z"/>
			<path style="fill:#FFFFFF;" d="M181.163,432.957l2.06,34.28c9.45,0.67,20.38,1.11,32.79,1.11c8.23,0,15.8-0.2,22.73-0.52
				l5.36-34.87H181.163z"/>
			<path style="fill:#FFFFFF;" d="M279.453,463.717c9.38-1.58,14.1-2.95,14.1-2.95l12.66-27.81h-14.9L279.453,463.717z"/>
			<ellipse style="fill:#1E2D51;" cx="216.011" cy="432.955" rx="90.198" ry="14.172"/>
			<path style="fill:none;stroke:#FFFFFF;stroke-linecap:round;stroke-linejoin:round;stroke-miterlimit:10;" d="M305.225,435.054
				c-6.46-6.831-43.942-12.071-89.214-12.071c-45.272,0-82.754,5.24-89.214,12.071"/>
			<path style="fill:#1E2D51;" d="M30.892,406.553c0,0,92.152,3.376,96.899,7.516c4.747,4.14,7.517,21.996,7.517,21.996h-3.692
				c0,0-9.05-12.28-14.001-18.16c-2.754-3.271-86.722-8.373-86.722-8.373V406.553z"/>
			<path style="fill:#B3BDC3;" d="M40.787,401.782c0,0,82.257,4.388,87.004,8.528c4.747,4.14,17.407,21.173,17.407,21.173
				l-9.89,4.581c0,0-12.264-17.184-17.011-21.324c-4.747-4.14-87.404-8.188-87.404-8.188L40.787,401.782z"/>
			<path style="fill:#1E2D51;" d="M141.1,430.136c0.278,0.594,0.744,0.962,1.041,0.823c0.297-0.139,0.312-0.733,0.034-1.326
				c-0.278-0.594-0.744-0.962-1.04-0.823C140.838,428.949,140.822,429.543,141.1,430.136z"/>
			<path style="fill:#1E2D51;" d="M134.87,432.712c0.278,0.594,0.744,0.962,1.04,0.823c0.297-0.139,0.312-0.733,0.034-1.326
				c-0.278-0.594-0.744-0.962-1.041-0.823C134.607,431.524,134.592,432.118,134.87,432.712z"/>
		</g>
	</g>
	<g display="none">
		<ellipse style="fill:#1E2D51;" cx="82.306" cy="484.24" rx="31.648" ry="7.542"/>
		<g>
			<g>
				<path style="fill:#B82A3A;" d="M92.854,469.211c-0.007,0.456-0.013,0.906-0.013,1.343c0,0.185-0.007,0.364-0.007,0.542
					c-0.007,0.437-0.013,0.86-0.013,1.277c-0.007,0.49-0.013,0.966-0.02,1.429c0,0.126,0,0.245-0.007,0.364
					c0,0.185,0,0.377-0.007,0.556c-0.007,0.37-0.007,0.728-0.013,1.065c-0.04,2.758-0.079,4.63-0.079,5.212
					c0,3.486-9.419,7.342-19.188,7.342c-6.608,0-13.05-1.759-16.529-3.982c-0.007-0.007-0.02-0.013-0.026-0.02
					c-0.093-0.06-0.185-0.119-0.278-0.185c-1.283-0.873-2.11-1.806-2.308-2.732c-0.013-0.073-0.026-0.139-0.033-0.212
					c-0.007-0.073-0.013-0.139-0.013-0.212c0-3.492-1.396-54.079,3.486-61.057c4.888-6.978,5.583-25.141,5.583-25.141H83.62
					c0,0,0.701,18.163,5.583,25.141c1.733,2.48,2.679,10.451,3.175,19.856c0.066,1.21,0.119,2.447,0.165,3.697
					c0.026,0.622,0.053,1.25,0.073,1.885c0.02,0.628,0.04,1.263,0.06,1.898c0.02,0.549,0.033,1.098,0.046,1.647v0.126
					c0.02,0.688,0.033,1.369,0.046,2.057c0.013,0.595,0.026,1.191,0.033,1.779c0.013,0.688,0.02,1.376,0.033,2.057
					c0,0.159,0,0.317,0.007,0.476c0.007,0.602,0.013,1.197,0.013,1.786C92.894,461.519,92.88,465.639,92.854,469.211z"/>
				<path style="fill:#FFFFFF;" d="M56.945,484.022c0-3.611-1.496-55.976,3.739-63.199c5.235-7.223,5.983-26.026,5.983-26.026
					h-3.281c0,0-0.698,18.166-5.582,25.144c-4.885,6.978-3.489,57.567-3.489,61.056c0,1.13,0.992,2.297,2.659,3.359
					C56.955,484.244,56.945,484.133,56.945,484.022z"/>
				<path style="fill:#1E2D51;" d="M92.854,469.211c-0.007,0.456-0.007,0.906-0.013,1.343c0,0.185-0.007,0.364-0.007,0.542
					c-0.007,0.437-0.013,0.86-0.013,1.277c-0.007,0.49-0.013,0.966-0.02,1.429c0,0.126,0,0.245-0.007,0.364
					c0,0.185,0,0.377-0.007,0.556c-0.007,0.37-0.007,0.728-0.013,1.065c-4.842,0.516-19.704,1.839-27.992-0.172v-36.035
					c8.07,1.958,22.383,0.754,27.595,0.218c0.06,1.21,0.119,2.447,0.165,3.697c0.026,0.622,0.053,1.25,0.073,1.885
					c0.02,0.628,0.04,1.263,0.06,1.898c0.02,0.549,0.033,1.098,0.046,1.647v0.126c0.02,0.688,0.033,1.369,0.046,2.057
					c0.013,0.595,0.026,1.191,0.033,1.779c0.013,0.688,0.02,1.376,0.033,2.057c0,0.159,0,0.317,0.007,0.476
					c0.007,0.602,0.013,1.197,0.013,1.786C92.894,461.519,92.88,465.639,92.854,469.211z"/>
				<path style="fill:#FFBA57;" d="M84.683,388.192H62.33c-0.915,0-1.656,0.741-1.656,1.656v3.293c0,0.915,0.742,1.656,1.656,1.656
					h22.353c0.915,0,1.656-0.742,1.656-1.656v-3.293C86.339,388.933,85.597,388.192,84.683,388.192z"/>
				<path style="fill:#FFFFFF;" d="M61.546,393.926v-3.293c0-0.915,0.742-1.656,1.656-1.656h22.353c0.21,0,0.408,0.043,0.593,0.114
					c-0.276-0.532-0.825-0.899-1.465-0.899H62.33c-0.915,0-1.656,0.741-1.656,1.656v3.293c0,0.705,0.443,1.303,1.063,1.542
					C61.619,394.455,61.546,394.2,61.546,393.926z"/>
			</g>
			<g>
				<path style="fill:#F83B4D;" d="M92.854,469.211c-0.007,0.456-0.007,0.906-0.013,1.343c0,0.185-0.007,0.364-0.007,0.542
					c-2.037,0.714-4.385,1.085-7.071,0.979c-17.416-0.688-19.327-14.631-15.233-20.267c1.521-2.09,3.631-2.732,5.788-2.725
					c0.172,0,0.344,0.007,0.516,0.013c0.562,0.026,1.124,0.092,1.673,0.185c0.185,0.026,0.364,0.06,0.542,0.093
					c0.542,0.106,1.065,0.231,1.568,0.357c0.265,0.073,0.516,0.139,0.767,0.212c0.251,0.066,0.489,0.132,0.721,0.198
					c0.066,0.02,0.126,0.04,0.185,0.053c0.172,0.053,0.344,0.099,0.503,0.146c0.999,0.284,1.786,0.476,2.236,0.397
					c1.66-0.304,4.623-1.296,7.693-1.812v0.126c0.02,0.688,0.033,1.369,0.046,2.057c0.013,0.595,0.026,1.191,0.033,1.779
					c0.013,0.688,0.02,1.376,0.033,2.057c0,0.159,0,0.317,0.007,0.476c0.007,0.602,0.013,1.197,0.013,1.786
					C92.894,461.519,92.88,465.639,92.854,469.211z"/>
				<path style="fill:#FFFFFF;" d="M85.761,472.076c-17.414-0.686-19.325-14.629-15.228-20.268c3.163-4.35,8.901-2.416,12.262-1.465
					c-3.255-0.448-9.113-0.735-10.919,2.627C69.331,457.707,74.19,470.768,85.761,472.076z"/>
				<path style="fill:#2E6232;" d="M92.801,452.887l-4.306-0.357l-5.232,2.692l1.376-3.129l-7.461-0.304l2.831-1.7h0.007
					l0.602-0.357l0.112-0.066l-4.445-3.029l8.499,1.991l4.055-4.524l-0.972,4.114l4.809-0.939c0.02,0.549,0.033,1.098,0.046,1.647
					v0.126l-1.237,1.032l1.283,1.025C92.781,451.703,92.794,452.298,92.801,452.887z"/>
			</g>
			<path style="fill:none;stroke:#1E2D51;stroke-linecap:round;stroke-linejoin:round;stroke-miterlimit:10;" d="M78.04,418.545
				c0,0,10.094-0.81,12.112,3.52"/>
		</g>
	</g>
	<g display="none">
		<ellipse style="fill:#1E2D51;" cx="415.857" cy="470.25" rx="35.052" ry="7.266"/>
		<g>
			<path style="fill:#F83B4D;" d="M429.993,466.458c-0.01,0-0.01,0-0.01,0c-1.42,1.26-2.83,2.22-4.14,2.82
				c-9.77,4.49-18.99,0-18.99,0c-8.69,2.91-25.82-4.07-31.79-16.4c-5.97-12.32-1.51-29.1,10.69-33.23
				c10.3-3.48,25.78,1.47,25.78,1.47s0.34-0.24,0.96-0.6c3.33-1.97,14.75-7.47,23.66,3.09
				C448.613,438.348,439.113,458.408,429.993,466.458z"/>
			<path style="fill:#FFFFFF;" d="M429.993,466.458c-0.01,0-0.01,0-0.01,0c15.96-21.44,8.6-39.47,1.72-44.68
				c-6.88-5.2-18.5,0-18.5,0l-0.71-1.26c3.33-1.97,14.75-7.47,23.66,3.09C448.613,438.348,439.113,458.408,429.993,466.458z"/>
			<path style="fill:#3C8041;" d="M400.188,424.002c0,0,4.352-4.258,5.934-6.678c1.582-2.421-2.769-11.717-7.121-12.113
				c0,0,1.978-4.747,4.945-4.945c2.967-0.198,8.308,13.846,8.901,16.022c0.593,2.176,6.132,5.736,6.923,7.714
				c0,0-7.714,0.989-10.385,3.165C409.385,427.167,403.946,424.002,400.188,424.002z"/>
			<path style="fill:none;stroke:#1E2D51;stroke-linecap:round;stroke-linejoin:round;stroke-miterlimit:10;" d="M397.814,423.606
				c0,0,7.823,0.198,10.834,4.352"/>
			<path style="fill:#B82A3A;" d="M397.418,469.397c-8.44,2.737-16.352,1.682-22.154-9.923c-5.802-11.604-2.525-33.015,3.692-36.396
				c9.215-5.011,22.867,6.111,22.867,6.111s13.82-14.551,24.078-2.789c13.993,16.042-0.527,38.775-10.022,42.997
				C406.385,473.618,397.418,469.397,397.418,469.397z"/>
			<path style="fill:#9C2431;" d="M382.19,429.427c5.564-0.585,3.887,4.728,8.503,9.607c2.271,2.401,6.333,0.839,6.901,5.738
				c0.478,4.121,5.149,25.988-10.514,22.104C371.417,462.993,373.436,430.348,382.19,429.427z"/>
			<path style="fill:#9C2431;" d="M418.393,429.427c-5.564-0.585-5.311,7.976-9.008,10.53c-2.719,1.878-6.845-0.559-7.413,4.34
				c-0.478,4.121-4.131,26.462,11.532,22.578C429.167,462.993,427.148,430.348,418.393,429.427z"/>
			<path style="fill:#1E2D51;" d="M385.116,432.818c0.648,0.922-2.997,3.074-4.123,1.931
				C379.867,433.606,384.13,431.415,385.116,432.818z"/>
			<path style="fill:#1E2D51;" d="M388.659,438.716c0.95,0.606-1.603,3.983-3.078,3.354
				C384.105,441.441,387.214,437.794,388.659,438.716z"/>
			<path style="fill:#1E2D51;" d="M393.583,442.164c1.107,0.212-0.016,4.293-1.619,4.255
				C390.36,446.381,391.899,441.842,393.583,442.164z"/>
			<path style="fill:#1E2D51;" d="M416.189,432.818c-0.648,0.922,2.997,3.074,4.123,1.931
				C421.438,433.606,417.175,431.415,416.189,432.818z"/>
			<path style="fill:#1E2D51;" d="M412.646,438.716c-0.95,0.606,1.603,3.983,3.078,3.354
				C417.201,441.441,414.092,437.794,412.646,438.716z"/>
			<path style="fill:#1E2D51;" d="M407.723,442.164c-1.107,0.212,0.016,4.293,1.619,4.255
				C410.946,446.381,409.406,441.842,407.723,442.164z"/>
		</g>
	</g>
</g>
<g id="TEXT" display="none">
	<g>
		<g>
			
				<text transform="matrix(1 0 0 1 162.5208 42.5867)" style="fill:#1E2D51; font-family:'Poppins-SemiBold'; font-size:15px; letter-spacing:4;">INTERNATIONAL</text>
		</g>
		<g>
			
				<text transform="matrix(1 0 0 1 104.1197 88.0159)" style="fill:#F13F5B; font-family:'PassionOne-Regular'; font-size:64.2375px; letter-spacing:4;">CHEFS DAY</text>
		</g>
	</g>
</g>
</svg>
