<svg width="1280" height="430" viewBox="0 0 1280 430" fill="none" xmlns="http://www.w3.org/2000/svg">
<path d="M1280 333.9L1237.33 341.8C1194.67 350.297 1109.33 365.203 1024 349.85C938.667 333.9 853.333 286.2 768 278.3C682.667 269.803 597.333 302.597 512 317.95C426.667 333.9 341.333 333.9 256 349.85C170.667 365.203 85.3333 397.997 42.6667 413.35L-9.53674e-06 429.3V2.67029e-05H42.6667C85.3333 2.67029e-05 170.667 2.67029e-05 256 2.67029e-05C341.333 2.67029e-05 426.667 2.67029e-05 512 2.67029e-05C597.333 2.67029e-05 682.667 2.67029e-05 768 2.67029e-05C853.333 2.67029e-05 938.667 2.67029e-05 1024 2.67029e-05C1109.33 2.67029e-05 1194.67 2.67029e-05 1237.33 2.67029e-05H1280V333.9Z" fill="#407AFE"/>
</svg>
